<?xml version="1.0" encoding="utf-8"?>
<!-- Generator: Adobe Illustrator 21.0.0, SVG Export Plug-In . SVG Version: 6.00 Build 0)  -->
<svg version="1.1" id="Layer_1" xmlns="http://www.w3.org/2000/svg" xmlns:xlink="http://www.w3.org/1999/xlink" x="0px" y="0px"
	 width="1400px" height="980px" viewBox="0 0 1400 980" enable-background="new 0 0 1400 980" xml:space="preserve">
<g>
	<g>
		<defs>
			<filter id="Adobe_OpacityMaskFilter" filterUnits="userSpaceOnUse" x="178.5" y="106.3" width="1049.5" height="707.1">
				<feFlood  style="flood-color:white;flood-opacity:1" result="back"/>
				<feBlend  in="SourceGraphic" in2="back" mode="normal"/>
			</filter>
		</defs>
		<mask maskUnits="userSpaceOnUse" x="178.5" y="106.3" width="1049.5" height="707.1" id="SVGID_1_">
			<g filter="url(#Adobe_OpacityMaskFilter)">
				<defs>
					<filter id="Adobe_OpacityMaskFilter_1_" filterUnits="userSpaceOnUse" x="178.5" y="106.3" width="1049.5" height="707.1">
						<feFlood  style="flood-color:white;flood-opacity:1" result="back"/>
						<feBlend  in="SourceGraphic" in2="back" mode="normal"/>
					</filter>
				</defs>
				<mask maskUnits="userSpaceOnUse" x="178.5" y="106.3" width="1049.5" height="707.1" id="SVGID_1_">
					<g filter="url(#Adobe_OpacityMaskFilter_1_)">
					</g>
				</mask>
				<linearGradient id="SVGID_2_" gradientUnits="userSpaceOnUse" x1="703.2746" y1="813.4015" x2="703.2746" y2="106.3198">
					<stop  offset="0" style="stop-color:#FFFFFF"/>
					<stop  offset="0.1846" style="stop-color:#FBFBFB"/>
					<stop  offset="0.3609" style="stop-color:#F0F0F0"/>
					<stop  offset="0.534" style="stop-color:#DCDCDC"/>
					<stop  offset="0.7051" style="stop-color:#C1C1C1"/>
					<stop  offset="0.873" style="stop-color:#9F9F9F"/>
					<stop  offset="1" style="stop-color:#808080"/>
				</linearGradient>
				<path mask="url(#SVGID_1_)" fill="url(#SVGID_2_)" d="M290,106.3h826.6c61.6,0,111.5,56.7,111.5,126.6v580.5H178.5V232.9
					C178.5,163,228.4,106.3,290,106.3z"/>
			</g>
		</mask>
		<linearGradient id="SVGID_3_" gradientUnits="userSpaceOnUse" x1="703.2746" y1="813.4015" x2="703.2746" y2="106.3198">
			<stop  offset="0" style="stop-color:#BFF1FF"/>
			<stop  offset="0.152" style="stop-color:#BBEEFD"/>
			<stop  offset="0.2973" style="stop-color:#B0E5F8"/>
			<stop  offset="0.4399" style="stop-color:#9CD7F0"/>
			<stop  offset="0.5808" style="stop-color:#81C2E4"/>
			<stop  offset="0.7207" style="stop-color:#5EA8D4"/>
			<stop  offset="0.8596" style="stop-color:#3487C1"/>
			<stop  offset="0.9954" style="stop-color:#0261AB"/>
			<stop  offset="1" style="stop-color:#0060AA"/>
		</linearGradient>
		<path fill="url(#SVGID_3_)" d="M290,106.3h826.6c61.6,0,111.5,56.7,111.5,126.6v580.5H178.5V232.9
			C178.5,163,228.4,106.3,290,106.3z"/>
	</g>
	<g>
		<polygon fill="#189672" points="1029.8,716.2 1196.7,716.2 1148.3,633.4 1175.6,633.4 1138.8,570.6 1160.3,570.6 1113.7,490.9 
			1113.2,490.1 1066.2,570.6 1087.7,570.6 1050.8,633.4 1078.2,633.4 		"/>
		<polygon fill="#21B790" points="1113.7,490.9 1113.7,716.2 1196.7,716.2 1148.3,633.4 1175.6,633.4 1138.8,570.6 1160.3,570.6 		
			"/>
		<polygon fill="#189672" points="851.9,716.2 1095.5,716.2 1024.8,595.4 1064.8,595.4 1011.1,503.7 1042.4,503.7 974.4,387.4 
			973.7,386.3 905,503.7 936.4,503.7 882.7,595.4 922.6,595.4 		"/>
		<polygon fill="#21B790" points="974.4,387.4 974.4,716.2 1095.5,716.2 1024.8,595.4 1064.8,595.4 1011.1,503.7 1042.4,503.7 		"/>
	</g>
	<g>
		<polygon fill="#189672" points="291.3,716.2 203,716.2 228.6,672.4 214.2,672.4 233.6,639.2 222.3,639.2 246.9,597.1 247.2,596.6 
			272.1,639.2 260.7,639.2 280.2,672.4 265.7,672.4 		"/>
		<polygon fill="#21B790" points="246.9,597.1 246.9,716.2 203,716.2 228.6,672.4 214.2,672.4 233.6,639.2 222.3,639.2 		"/>
		<polygon fill="#189672" points="385.3,716.2 256.6,716.2 293.9,652.3 272.8,652.3 301.2,603.8 284.6,603.8 320.6,542.3 
			320.9,541.7 357.3,603.8 340.7,603.8 369.1,652.3 348,652.3 		"/>
		<polygon fill="#21B790" points="320.6,542.3 320.6,716.2 256.6,716.2 293.9,652.3 272.8,652.3 301.2,603.8 284.6,603.8 		"/>
	</g>
	<g>
		
			<rect x="134.9" y="466.5" transform="matrix(0.8386 0.5448 -0.5448 0.8386 282.7938 -13.5717)" fill="#7C5E49" width="58.9" height="7.8"/>
		
			<rect x="195.9" y="436.8" transform="matrix(-0.8386 0.5448 -0.5448 -0.8386 654.3559 687.4625)" fill="#B27F5D" width="58.9" height="7.8"/>
		
			<rect x="195.9" y="361.5" transform="matrix(-0.8386 0.5448 -0.5448 -0.8386 613.3404 549.0422)" fill="#B27F5D" width="58.9" height="7.8"/>
		
			<rect x="195.9" y="529.9" transform="matrix(-0.8386 0.5448 -0.5448 -0.8386 705.0868 858.6705)" fill="#B27F5D" width="58.9" height="7.8"/>
		
			<rect x="197.8" y="608.2" transform="matrix(-0.8386 0.5448 -0.5448 -0.8386 729.866 1008.0594)" fill="#B27F5D" width="35.7" height="7.8"/>
		
			<rect x="162.6" y="578.5" transform="matrix(0.8386 0.5448 -0.5448 0.8386 345.8707 -2.3801)" fill="#7C5E49" width="28.7" height="7.8"/>
		
			<rect x="145.1" y="351.4" transform="matrix(0.8386 0.5448 -0.5448 0.8386 220.9191 -34.698)" fill="#7C5E49" width="47.7" height="8"/>
		<rect x="184" y="330.5" fill="#B27F5D" width="23.1" height="391.2"/>
		<rect x="184" y="330.5" fill="#7C5E49" width="12.7" height="391.2"/>
		<path fill="#2BD6AD" d="M304.7,303.7v11.2c0,21.8-17.7,39.5-39.5,39.5H164.6c-21.8,0-39.5-17.7-39.5-39.5v-11.2
			c0-21.8,17.7-39.5,39.5-39.5h100.6C287,264.2,304.7,281.9,304.7,303.7z"/>
		<path fill="#21B790" d="M304.7,309.3v5.6c0,21.8-17.7,39.5-39.5,39.5H164.6c-21.8,0-39.5-17.7-39.5-39.5v-5.6H304.7z"/>
		<path fill="#2BD6AD" d="M315.1,414.6v5.6c0,10.9-8.8,19.8-19.7,19.8h-50.3c-10.9,0-19.8-8.8-19.8-19.8v-5.6
			c0-10.9,8.8-19.7,19.8-19.7h50.3C306.3,394.8,315.1,403.7,315.1,414.6z"/>
		<path fill="#21B790" d="M315.1,417.4v2.8c0,10.9-8.8,19.8-19.7,19.8h-50.3c-10.9,0-19.8-8.8-19.8-19.8v-2.8H315.1z"/>
		<path fill="#2BD6AD" d="M290.2,497.3v5.6c0,10.9-8.8,19.8-19.7,19.8h-50.3c-10.9,0-19.8-8.8-19.8-19.8v-5.6
			c0-10.9,8.8-19.7,19.8-19.7h50.3C281.3,477.6,290.2,486.4,290.2,497.3z"/>
		<path fill="#21B790" d="M290.2,500.1v2.8c0,10.9-8.8,19.8-19.7,19.8h-50.3c-10.9,0-19.8-8.8-19.8-19.8v-2.8H290.2z"/>
		<path fill="#2BD6AD" d="M181,440.2v5.6c0,10.9-8.8,19.8-19.7,19.8h-50.3c-10.9,0-19.8-8.8-19.8-19.8v-5.6
			c0-10.9,8.8-19.7,19.8-19.7h50.3C172.1,420.4,181,429.3,181,440.2z"/>
		<path fill="#21B790" d="M181,443v2.8c0,10.9-8.8,19.8-19.7,19.8h-50.3c-10.9,0-19.8-8.8-19.8-19.8V443H181z"/>
	</g>
	<g>
		
			<rect x="1160.6" y="530.9" transform="matrix(0.8386 0.5448 -0.5448 0.8386 481.7458 -558.1104)" fill="#7C5E49" width="44" height="5.9"/>
		
			<rect x="1206.2" y="508.7" transform="matrix(-0.8386 0.5448 -0.5448 -0.8386 2536.9688 271.5231)" fill="#B27F5D" width="44" height="5.9"/>
		
			<rect x="1206.2" y="452.4" transform="matrix(-0.8386 0.5448 -0.5448 -0.8386 2506.3096 168.0541)" fill="#B27F5D" width="44" height="5.9"/>
		
			<rect x="1206.2" y="578.3" transform="matrix(-0.8386 0.5448 -0.5448 -0.8386 2574.8911 399.5039)" fill="#B27F5D" width="44" height="5.9"/>
		
			<rect x="1207.6" y="636.9" transform="matrix(-0.8386 0.5448 -0.5448 -0.8386 2593.4138 511.1732)" fill="#B27F5D" width="26.6" height="5.9"/>
		
			<rect x="1181.4" y="614.7" transform="matrix(0.8386 0.5448 -0.5448 0.8386 528.9011 -549.7485)" fill="#7C5E49" width="21.5" height="5.9"/>
		
			<rect x="1168.3" y="444.9" transform="matrix(0.8386 0.5448 -0.5448 0.8386 435.4984 -573.907)" fill="#7C5E49" width="35.7" height="6"/>
		<rect x="1197.3" y="429.3" fill="#B27F5D" width="17.3" height="292.4"/>
		<rect x="1197.3" y="429.3" fill="#7C5E49" width="9.5" height="292.4"/>
		<path fill="#2BD6AD" d="M1287.6,409.2v8.4c0,16.3-13.2,29.5-29.5,29.5h-75.2c-16.3,0-29.5-13.2-29.5-29.5v-8.4
			c0-16.3,13.2-29.5,29.5-29.5h75.2C1274.4,379.7,1287.6,392.9,1287.6,409.2z"/>
		<path fill="#21B790" d="M1287.6,413.4v4.2c0,16.3-13.2,29.5-29.5,29.5h-75.2c-16.3,0-29.5-13.2-29.5-29.5v-4.2H1287.6z"/>
		<path fill="#2BD6AD" d="M1295.4,492.1v4.2c0,8.2-6.6,14.8-14.8,14.8H1243c-8.2,0-14.8-6.6-14.8-14.8v-4.2
			c0-8.1,6.6-14.8,14.8-14.8h37.6C1288.8,477.3,1295.4,484,1295.4,492.1z"/>
		<path fill="#21B790" d="M1295.4,494.2v2.1c0,8.2-6.6,14.8-14.8,14.8H1243c-8.2,0-14.8-6.6-14.8-14.8v-2.1H1295.4z"/>
		<path fill="#2BD6AD" d="M1276.7,554v4.2c0,8.2-6.6,14.8-14.8,14.8h-37.6c-8.2,0-14.8-6.6-14.8-14.8V554c0-8.1,6.6-14.8,14.8-14.8
			h37.6C1270.1,539.2,1276.7,545.8,1276.7,554z"/>
		<path fill="#21B790" d="M1276.7,556v2.1c0,8.2-6.6,14.8-14.8,14.8h-37.6c-8.2,0-14.8-6.6-14.8-14.8V556H1276.7z"/>
		<path fill="#2BD6AD" d="M1195.1,511.2v4.2c0,8.2-6.6,14.8-14.8,14.8h-37.6c-8.2,0-14.8-6.6-14.8-14.8v-4.2
			c0-8.1,6.6-14.8,14.8-14.8h37.6C1188.5,496.5,1195.1,503.1,1195.1,511.2z"/>
		<path fill="#21B790" d="M1195.1,513.3v2.1c0,8.2-6.6,14.8-14.8,14.8h-37.6c-8.2,0-14.8-6.6-14.8-14.8v-2.1H1195.1z"/>
	</g>
	<g>
		<path fill="#9B9B9B" d="M1255.9,757.4H165.3c-12.3,0-22.3-10-22.3-22.3l0,0c0-12.3,10-22.3,22.3-22.3h1090.6
			c12.3,0,22.3,10,22.3,22.3l0,0C1278.2,747.4,1268.2,757.4,1255.9,757.4z"/>
		<path fill="#E59D48" d="M1273.1,835.7h-1125c-12.3,0-22.3-10-22.3-22.3l0,0c0-12.3,10-22.3,22.3-22.3h1125
			c12.3,0,22.3,10,22.3,22.3l0,0C1295.4,825.7,1285.4,835.7,1273.1,835.7z"/>
		<rect x="166.2" y="757.4" fill="#727272" width="1088.7" height="33.6"/>
		<rect x="166.2" y="757.4" fill="#606060" width="1088.7" height="11.3"/>
		<path fill="#F4B576" d="M1236.7,816.9H1057c-1.8,0-3.2-1.5-3.2-3.2V804c0-1.8,1.5-3.3,3.3-3.3h179.7c1.8,0,3.3,1.5,3.3,3.3v9.6
			C1240,815.4,1238.5,816.9,1236.7,816.9z"/>
		<path fill="#F4B576" d="M461.6,822.3h-170c-4.5,0-8.1-3.6-8.1-8.1l0,0c0-4.5,3.6-8.1,8.1-8.1h170c4.5,0,8.1,3.6,8.1,8.1l0,0
			C469.7,818.7,466.1,822.3,461.6,822.3z"/>
		<path fill="#F4B576" d="M1049.7,828.9h-37.7c-2.2,0-4-1.8-4-4l0,0c0-2.2,1.8-4,4-4h37.7c2.2,0,4,1.8,4,4l0,0
			C1053.8,827.1,1052,828.9,1049.7,828.9z"/>
		<path fill="#F4B576" d="M511.4,810.2h-37.7c-2.2,0-4-1.8-4-4l0,0c0-2.2,1.8-4,4-4h37.7c2.2,0,4,1.8,4,4l0,0
			C515.4,808.4,513.6,810.2,511.4,810.2z"/>
		<path fill="#F4B576" d="M636.2,817h-28.3c-2,0-3.6-1.6-3.6-3.6l0,0c0-2,1.6-3.6,3.6-3.6h28.3c2,0,3.6,1.6,3.6,3.6l0,0
			C639.8,815.4,638.2,817,636.2,817z"/>
		<path fill="#F4B576" d="M1022.2,805.7h-28.3c-2,0-3.6-1.6-3.6-3.6l0,0c0-2,1.6-3.6,3.6-3.6h28.3c2,0,3.6,1.6,3.6,3.6l0,0
			C1025.8,804.1,1024.2,805.7,1022.2,805.7z"/>
		<path fill="#F4B576" d="M174.9,805.7h-28.3c-2,0-3.6-1.6-3.6-3.6l0,0c0-2,1.6-3.6,3.6-3.6h28.3c2,0,3.6,1.6,3.6,3.6l0,0
			C178.5,804.1,176.9,805.7,174.9,805.7z"/>
		<path fill="#F4B576" d="M651.8,805.7H645c-2,0-3.6-1.6-3.6-3.6l0,0c0-2,1.6-3.6,3.6-3.6h6.8c2,0,3.6,1.6,3.6,3.6l0,0
			C655.4,804.1,653.8,805.7,651.8,805.7z"/>
		<path fill="#F4B576" d="M181.9,817.8h-6.8c-2,0-3.6-1.6-3.6-3.6l0,0c0-2,1.6-3.6,3.6-3.6h6.8c2,0,3.6,1.6,3.6,3.6l0,0
			C185.6,816.2,183.9,817.8,181.9,817.8z"/>
	</g>
	<path fill="#848484" d="M1189.9,735.1H214.1c-7.2,0-10-9.2-4.1-13.3l13.1-9h957.8l13.1,9C1199.9,725.9,1197,735.1,1189.9,735.1z"/>
	<g>
		<path fill="#DB82A4" d="M615,453.5c0,0,3.5-27.3,56.1-27.3c52.6,0,65.6,27.3,65.6,27.3H615z"/>
		<g>
			<path fill="#17141E" d="M720.3,404.4c0,0,3.2,22.7,5.4,27c2.2,4.2,5.3,24.1-11.2,23.5c-16.5-0.6-31.3-33.6-31.3-33.6l4.9-19.4
				L720.3,404.4z"/>
			<path fill="#292435" d="M651.3,316.6c0,0-25.1,12.4-27.4,50.9c-2.3,38.5-28.8,69.3,4.7,83.8c33.5,14.6,56.7,5.5,56.7,5.5
				l-10.1-65.9l1.2-47L651.3,316.6z"/>
			<path fill="#FFCDC0" d="M644.1,377.6c0,16.4,10.1,10.6,19,13.4c1.1,0.4,2,1.1,2.8,2.3c5.5,7.8,3.7,31.6,3.7,31.6l24.6,21.2
				l0.8-3.7c0,0-3-12.8-1.7-21.5c1.3-8.7,20.3-6.9,32.3-10.9c0.1,0,0.1,0,0.1,0c12-4.1,2.6-72.5,2.6-72.5l0.9-6.7l-7.8-4l-17.8,3.4
				l-43.5,7.6l-0.2,37.6C660.1,375.2,644.1,361.2,644.1,377.6z"/>
			<path fill="#F2BAAF" d="M665.9,393.2c5.5,7.8,3.7,31.6,3.7,31.6l24.6,21.2l0.8-3.7c0,0-3-12.8-1.7-21.5
				c1.3-8.7,20.3-6.9,32.3-10.9c-1.3,0.2-16.4,2.9-33.6,0.6c-18-2.4-10.1-61.4-10.1-61.4h1.1l-7.2-1.8l-11.5,12.6L665.9,393.2z"/>
			<path fill="#292435" d="M657.8,399.4c0.3,1.5,0.4,3,0.3,4.4c0,0.1,0,0.1,0,0.1c-0.5,11.2-10.4,17.8-10.4,17.8
				c25.4,8.8,24.7-46,24.5-53.5c0-0.5,0-0.8,0-0.8c27.3,0.4,47.4-37.4,47.4-37.4c9.7,7.8,10.2,23.5,10.2,23.5
				c4.6,43.2-1.2,52.8-1.2,52.8c-0.8,19.2-10.1,20.9-10.1,20.9c27,8.1,20.1-80.6,16.4-94.9c-3.7-14.3-12.8-8.6-12.8-8.6
				c-9.4-6.2-29.9-18.7-47.5-16.7c-17.6,2-46.3,19.9-50.3,57.2C620.1,401.4,657.8,399.4,657.8,399.4z"/>
			<path fill="#FFCDC0" d="M659.7,375.2l1,3l2,12.8c-8.9-2.8-19,2.9-19-13.4C643.7,361.4,659.3,374.9,659.7,375.2z"/>
			<path fill="#E29A8F" d="M657.5,386.3c0,0,0.2-9.7-5.7-10.4c-5.9-0.7-1.6,7.5,0,8C653.3,384.4,657.2,384.4,657.5,386.3z"/>
			<path fill="#292435" d="M647.7,421.7c25.4,8.8,24.7-46,24.5-53.5l0,0c-3.9,1.5-13.1-0.9-13.1-0.9c1.9,14.2-0.7,34.7-0.9,36.6
				c0,0.1,0,0.1,0,0.1C657.6,415.1,647.7,421.7,647.7,421.7z"/>
			<g>
				<g>
					<path fill="#1E1C18" d="M719.4,329.9c-1.7,3.3-3.6,6.5-5.7,9.6c-2.1,3.1-4.4,6-6.8,8.8c-4.9,5.6-10.6,10.6-17.1,14.3
						c-3.2,1.9-6.7,3.3-10.3,4.4c-1.8,0.6-3.6,0.9-5.5,1.3c-1.9,0.2-3.7,0.5-5.6,0.5l-1.4,0c-0.5,0-0.9,0-1.4-0.1
						c-0.9-0.1-1.9-0.1-2.8-0.2c-1.9-0.3-3.7-0.5-5.5-1c-3.7-0.8-7.2-2.2-10.6-3.7l-0.8-0.4l0.7-0.5c1.7-1.1,3.5-2.2,5.2-3.4
						c1.7-1.2,3.4-2.3,5.1-3.6c1.7-1.2,3.3-2.5,4.9-3.8c0.8-0.7,1.6-1.4,2.3-2.1c0.7-0.7,1.4-1.5,1.8-2.5l0.1,0
						c-0.4,1-1,1.8-1.7,2.6c-0.7,0.8-1.4,1.5-2.2,2.2c-1.5,1.4-3.1,2.7-4.8,4c-3.3,2.6-6.7,5-10.1,7.3l-0.1-0.8
						c3.4,1.4,6.8,2.8,10.4,3.6c1.8,0.5,3.6,0.7,5.4,1c0.9,0.1,1.8,0.1,2.7,0.2c0.5,0,0.9,0.1,1.4,0.1l1.4,0c1.8,0,3.7-0.2,5.5-0.4
						c1.8-0.3,3.6-0.6,5.4-1.2c3.5-1,7-2.4,10.2-4.2c6.4-3.6,12.1-8.5,17.1-14c2.5-2.7,4.8-5.7,6.9-8.7
						C715.6,336.2,717.6,333.1,719.4,329.9L719.4,329.9z"/>
				</g>
			</g>
			<ellipse fill="#1C1C1C" cx="722.4" cy="371.3" rx="2.6" ry="3.8"/>
			<ellipse fill="#1C1C1C" cx="693.4" cy="371.3" rx="2.6" ry="3.8"/>
			<path fill="#D64D4D" d="M712.4,371.3c0,0,2.2,7.6,4.1,10.1c1.9,2.5-6,5.8-6.4-0.6C709.6,374.3,712.4,371.3,712.4,371.3z"/>
			<path fill="#212121" d="M694.5,387.5c0,0,2.1,2.4,5,5h0c3.6,3.3,8.6,7,12.5,7c2.5,0,4.8-1.5,6.7-3.5c3.4-3.6,5.6-8.5,5.6-8.5
				s-1.4,0.4-4,0.7c-3.9,0.5-10.6,1-19.5,0.1C698.8,388.1,696.7,387.9,694.5,387.5z"/>
			<path fill="#FFFFFF" d="M700.8,388.3v0.7c0,1,0.8,1.9,1.9,1.9h15.7c1,0,1.9-0.8,1.9-1.9v-0.8
				C716.4,388.8,709.7,389.3,700.8,388.3z"/>
			<path fill="#D64D4D" d="M699.4,392.5c3.6,3.3,8.6,7,12.5,7c2.5,0,4.8-1.5,6.7-3.5C716.4,394,711.3,392,699.4,392.5z"/>
			<g>
				<g>
					<path fill="#1C1C1C" d="M733,358.3c-1.3-1-2.6-1.8-3.9-2.4c-1.3-0.6-2.7-0.9-4.1-0.8c-1.4,0.1-2.8,0.4-4.1,1
						c-0.4,0.1-0.7,0.3-1,0.5l-1,0.5c-0.7,0.4-1.3,0.8-2.1,1.2c0.4-0.7,0.9-1.3,1.4-2c0.6-0.5,1.2-1.1,1.9-1.6
						c1.4-0.9,3.1-1.6,4.8-1.6c1.8-0.1,3.5,0.5,4.9,1.4C731.3,355.5,732.4,356.8,733,358.3z"/>
				</g>
			</g>
			<g>
				<g>
					<path fill="#F7AF97" d="M703.9,398c0.7,0.5,1.3,0.9,2,1.3c0.7,0.4,1.3,0.7,2,1c1.4,0.5,2.8,0.8,4.2,0.6c0.4,0,0.7-0.1,1-0.2
						c0.4,0,0.7-0.2,1-0.3c0.3-0.1,0.7-0.2,1-0.4c0.3-0.2,0.7-0.3,1-0.5c0.7-0.3,1.3-0.8,1.9-1.2c0.6-0.4,1.2-0.9,1.9-1.3l0.1,0.1
						l-1.7,1.7c-0.6,0.5-1.2,1-1.9,1.4c-1.3,0.9-2.8,1.4-4.4,1.6c-1.6,0.2-3.2-0.2-4.6-0.9C706.1,400.3,704.8,399.3,703.9,398
						L703.9,398z"/>
				</g>
			</g>
			<g>
				<g>
					<path fill="#1C1C1C" d="M701.5,358.3c-1.3-1-2.6-1.8-3.9-2.4c-1.3-0.6-2.7-0.9-4.1-0.8c-1.4,0.1-2.8,0.4-4.1,1
						c-0.4,0.1-0.7,0.3-1,0.5l-1,0.5c-0.7,0.4-1.3,0.8-2.1,1.2c0.4-0.7,0.9-1.3,1.4-2c0.6-0.5,1.2-1.1,1.9-1.6
						c1.4-0.9,3.1-1.6,4.8-1.6c1.8-0.1,3.5,0.5,4.9,1.4C699.7,355.5,700.8,356.8,701.5,358.3z"/>
				</g>
			</g>
		</g>
	</g>
	<g>
		<path fill="#494949" d="M566.6,457.6H317.7c0-11,8.9-20,20-20h208.9c5.5,0,10.5,2.2,14.1,5.9C564.4,447.1,566.6,452.1,566.6,457.6
			z"/>
		<path fill="#2D2D2D" d="M357.7,457.6h-40c0-11,8.9-20,20-20c5.5,0,10.5,2.2,14.1,5.9C355.5,447.1,357.7,452.1,357.7,457.6z"/>
	</g>
	<g>
		<path fill="#777F82" d="M343.4,457.8c0,0,3.5-27.3,56.1-27.3c52.6,0,65.6,27.3,65.6,27.3H343.4z"/>
		<g>
			<path fill="#E29986" d="M459,381.2c0,0,6.1-4.5,6.1,4.2c0,8.6-6.1,6.6-6.1,6.6V381.2z"/>
			<path fill="#FFCDC0" d="M378.8,384.3c0,9.6,11.9,9.6,11.9,9.6c0,4,3.2,12.6,4.9,16.2c1.7,3.5-1.4,21-1.4,21l20.4,23.5
				c0,0,5.5-8.3,4.7-20.2c-0.9-11.9,12.2-8.3,29.4-10.1c3.4-0.3,5.8-3.4,7.4-8.1c0,0,0,0,0-0.1c0.4-1.1,0.7-2.4,1-3.7
				c2.8-12,2.2-30.7,1.3-44.3c-0.7-9.8-1.6-17-1.6-17.3c0,0-10.2-12.6-10.8-13.4c-0.6-0.8-25-2.5-25-2.5l-18.5,8.3l-9.7,4.3L392,367
				l-0.5,13.2C390.7,379.7,378.8,374.7,378.8,384.3z"/>
			<path fill="#F2BAAF" d="M378.7,384.3c0,9.6,11.9,9.6,11.9,9.6c0,4,3.2,12.6,4.9,16.2c1.7,3.5-1.4,21-1.4,21l20.4,23.5
				c0,0,5.5-8.3,4.7-20.2c-0.9-11.9,12.2-8.3,29.4-10.1c3.4-0.3,5.8-3.4,7.4-8.1c-1.6,2.6-5.5,5.7-15.2,5.7
				c-17,0-38.4,1.7-38.4-14.2v-64.5l-9.7,4.3l-1.2,32.8C390.7,379.7,378.7,374.7,378.7,384.3z"/>
			<path fill="#C67C6D" d="M389.6,391c0,0,0.2-9.1-5.4-9.7c-5.5-0.6-1.5,7,0,7.5C385.7,389.2,389.3,389.2,389.6,391z"/>
			<ellipse fill="#1C1C1C" cx="450.2" cy="376.9" rx="3.2" ry="4.8"/>
			<ellipse fill="#1C1C1C" cx="422.2" cy="376.9" rx="3.2" ry="4.8"/>
			<path fill="#ED6969" d="M437.7,377.9c0,0,2.9,9.9,5.3,13.2c2.4,3.3-7.7,7.6-8.3-0.8C434.1,381.8,437.7,377.9,437.7,377.9z"/>
			<g>
				<g>
					<path fill="#3A3026" d="M425.1,396.9c2.3,1.6,4.5,2.9,6.7,3.9c2.2,0.9,4.2,1.4,6.2,1.3c1,0,2-0.2,3.1-0.5
						c1.1-0.3,2.1-0.8,3.2-1.3c2.2-1,4.4-2.5,6.9-3.8l0.2,0.2c-1.7,2.1-3.5,4.1-5.8,5.6c-1.1,0.8-2.3,1.4-3.5,1.9
						c-1.3,0.5-2.6,0.8-4,0.9c-2.7,0.1-5.4-0.8-7.7-2.3c-2.3-1.5-4.2-3.5-5.6-5.7L425.1,396.9z"/>
				</g>
			</g>
			<path fill="#56493C" d="M443.4,326.1c0,0,25.2-0.4,20.2,39.6l-4.6,15.8l-0.1-4.4c0,1.4-0.6-30.7-11.4-36.2
				c1.4,7.6,1.8,19.9-7.5,28.6l4-24.7c-6.6,10.2-25,34.5-47.8,28c0.9,5.3,1.7,14.3-0.5,26.6c0,0-1.3-10.5-4.1-18.5l0,0
				c0,0-12.8-6.5-12.8,4.7l-2.6-3.4c-8.1-10.6-8-25.3,0.4-35.7C391.5,327.6,417.5,304.7,443.4,326.1z"/>
			<g>
				<g>
					<g>
						<path fill="#3A3026" d="M457,363.9c-1.4-0.8-2.6-1.4-3.9-1.8c-1.2-0.4-2.4-0.6-3.6-0.6c-1.2,0.1-2.4,0.3-3.6,0.8
							c-0.6,0.2-1.2,0.5-1.9,0.8c-0.7,0.3-1.3,0.6-2.1,0.9c0.3-0.7,0.7-1.4,1.2-2c0.5-0.6,1.1-1.2,1.7-1.7c1.3-1,2.9-1.6,4.7-1.7
							c1.8-0.1,3.5,0.5,4.8,1.5C455.6,361.1,456.6,362.4,457,363.9z"/>
					</g>
				</g>
				<g>
					<g>
						<path fill="#3A3026" d="M427.6,363.9c-1.4-0.8-2.6-1.4-3.9-1.8c-1.2-0.4-2.4-0.6-3.6-0.6c-1.2,0.1-2.4,0.3-3.6,0.8
							c-0.6,0.2-1.2,0.5-1.9,0.8c-0.7,0.3-1.3,0.6-2.1,0.9c0.3-0.7,0.7-1.4,1.2-2c0.5-0.6,1.1-1.2,1.7-1.7c1.3-1,2.9-1.6,4.7-1.7
							c1.8-0.1,3.5,0.5,4.8,1.5C426.2,361.1,427.2,362.4,427.6,363.9z"/>
					</g>
				</g>
			</g>
		</g>
		<g>
			<g>
				<path fill="#F2BAAF" d="M429.3,404.8c1.4,1,2.9,1.8,4.3,2.4c1.5,0.5,3,0.8,4.5,0.6c1.5-0.2,3-0.6,4.4-1.3c0.4-0.1,0.7-0.4,1-0.6
					l1.1-0.6c0.7-0.5,1.4-1,2.1-1.4c-0.4,0.7-0.9,1.4-1.5,2.2c-0.6,0.6-1.2,1.3-1.9,1.8c-1.4,1.1-3.2,1.8-5.1,2
					c-1.9,0.2-3.8-0.3-5.3-1.2C431.4,407.7,430.1,406.4,429.3,404.8z"/>
			</g>
		</g>
	</g>
	<g>
		<path fill="#494949" d="M558.5,457.6h-89v-23.7c0-7.9,5.6-14.4,13-15.9c1-0.2,2.1-0.3,3.2-0.3h44.9c6.5,0,12.4,3.9,14.9,9.9
			L558.5,457.6z"/>
		<path fill="#2D2D2D" d="M498.7,457.6h-29.2v-23.7c0-7.9,5.6-14.4,13-15.9c3.4,1,6.3,4.6,7.7,9.5L498.7,457.6z"/>
	</g>
	<g>
		<path fill="#E5DC6A" d="M498.8,457.6c0,0,4-31.2,64.2-31.2c60.1,0,75,31.2,75,31.2H498.8z"/>
		<g>
			<path fill="#3D332B" d="M535.7,308.1c0,0-25.4-22.6-45.8-8.8c-20.4,13.8-16.2,48.7-16.5,54.2c-0.3,5.5-0.7,30.7-15.3,31.5
				c0,0,32.2,32.4,52.3-10.4C530.4,331.9,535.7,308.1,535.7,308.1z"/>
			<path fill="#CC5056" d="M529,313.3c0,0-10.5-3.4-15.1,5.7c-4.6,9-1.9,21.3-1.9,21.3L529,313.3z"/>
			<path fill="#FFCDC0" d="M526.8,375.5c0,17.9,11.1,11.6,20.8,14.6c1.2,0.4,2.2,1.2,3.1,2.5c6,8.5,4.1,34.5,4.1,34.5l26.9,23.2
				l0.9-4.1c0,0-3.2-14-1.9-23.5c1.4-9.5,22.2-7.5,35.3-11.9c0.1,0,0.1,0,0.1,0c13.1-4.4,2.9-79.2,2.9-79.2l1-7.3l-8.5-4.4
				l-19.4,3.7l-47.5,8.3l-0.2,41.1C544.4,372.9,526.8,357.6,526.8,375.5z"/>
			<path fill="#F2BAAF" d="M550.7,392.6c6,8.5,4.1,34.5,4.1,34.5l26.9,23.2l0.9-4.1c0,0-3.2-14-1.9-23.5c1.4-9.5,22.2-7.5,35.3-11.9
				c-1.4,0.3-17.9,3.1-36.7,0.7c-19.7-2.6-11-67.1-11-67.1h1.2l-7.9-1.9l-12.5,13.8L550.7,392.6z"/>
			<path fill="#56493C" d="M541.8,399.3c0.3,1.7,0.4,3.3,0.3,4.8c0,0.1,0,0.1,0,0.1c-0.6,12.2-11.4,19.4-11.4,19.4
				c27.8,9.7,27-50.3,26.8-58.5c0-0.6,0-0.9,0-0.9c29.8,0.4,51.8-40.9,51.8-40.9c10.6,8.5,11.2,25.7,11.2,25.7
				c5,47.2-1.3,57.7-1.3,57.7c-0.9,20.9-11.1,22.9-11.1,22.9c29.5,8.9,22-88.1,17.9-103.7c-4.1-15.7-14-9.4-14-9.4
				c-10.2-6.8-32.7-20.4-52-18.2c-19.3,2.2-50.6,21.8-55,62.5C500.6,401.6,541.8,399.3,541.8,399.3z"/>
			<path fill="#FFCDC0" d="M543.9,372.9l1,3.3l2.2,14c-9.7-3-20.7,3.2-20.7-14.6C526.3,357.8,543.5,372.6,543.9,372.9z"/>
			<path fill="#E29A8F" d="M541.5,385c0,0,0.2-10.6-6.3-11.4c-6.5-0.8-1.7,8.2,0,8.7C536.9,382.9,541.1,382.9,541.5,385z"/>
			<path fill="#56493C" d="M530.8,423.7c27.8,9.7,27-50.3,26.8-58.5l0,0c-4.3,1.6-14.3-1-14.3-1c2.1,15.5-0.8,37.9-1,40
				c0,0.1,0,0.1,0,0.1C541.6,416.5,530.8,423.7,530.8,423.7z"/>
			<g>
				<g>
					<path fill="#3A3026" d="M609.1,323.3c-1.7,3.7-3.8,7.2-6,10.6c-2.2,3.4-4.7,6.7-7.3,9.8c-5.3,6.2-11.5,11.7-18.7,15.9
						c-3.6,2-7.4,3.7-11.4,4.9c-2,0.6-4,1-6.1,1.4c-2.1,0.2-4.1,0.5-6.2,0.5l-1.6,0c-0.5,0-1-0.1-1.5-0.1c-1-0.1-2.1-0.1-3.1-0.2
						c-2-0.3-4.1-0.6-6.1-1.2c-4-0.9-7.8-2.5-11.6-4.2l-1.2-0.5l1.1-0.7c3.8-2.4,7.6-4.9,11.3-7.5c1.8-1.3,3.7-2.7,5.4-4.1
						c0.9-0.7,1.7-1.5,2.5-2.3c0.8-0.8,1.5-1.7,2-2.7c-0.4,1-1.1,2-1.8,2.9c-0.7,0.9-1.6,1.7-2.4,2.5c-1.6,1.6-3.4,3-5.2,4.5
						c-1.8,1.4-3.6,2.8-5.4,4.1c-1.8,1.3-3.7,2.6-5.6,3.9l-0.1-1.3c3.7,1.5,7.5,3,11.4,3.8c1.9,0.5,3.9,0.7,5.9,1c1,0.1,2,0.1,3,0.2
						c0.5,0,1,0.1,1.5,0.1l1.5,0c2,0,4-0.3,5.9-0.5c1.9-0.4,3.9-0.7,5.8-1.3c3.8-1.1,7.5-2.6,11-4.6c7-3.9,13.2-9.2,18.6-15.1
						C600.2,336.9,605,330.4,609.1,323.3z"/>
				</g>
			</g>
			<ellipse fill="#1C1C1C" cx="612.4" cy="368.6" rx="2.8" ry="4.2"/>
			<ellipse fill="#1C1C1C" cx="580.7" cy="368.6" rx="2.8" ry="4.2"/>
			<path fill="#D64D4D" d="M601.5,368.6c0,0,2.4,8.3,4.5,11c2.1,2.8-6.6,6.3-7-0.7C598.5,371.9,601.5,368.6,601.5,368.6z"/>
			<path fill="#212121" d="M581.9,386.3c0,0,2.2,2.6,5.4,5.5h0c4,3.6,9.4,7.7,13.7,7.7c2.8,0,5.3-1.7,7.3-3.8
				c3.7-3.9,6.1-9.3,6.1-9.3s-1.5,0.4-4.3,0.8c-4.3,0.6-11.6,1.1-21.3,0.1C586.6,387,584.3,386.7,581.9,386.3z"/>
			<path fill="#FFFFFF" d="M588.8,387.3v0.8c0,1.1,0.9,2,2,2H608c1.1,0,2-0.9,2-2v-0.9C605.8,387.7,598.5,388.3,588.8,387.3z"/>
			<path fill="#D64D4D" d="M587.3,391.8c4,3.6,9.4,7.7,13.7,7.7c2.8,0,5.3-1.7,7.3-3.8C605.9,393.4,600.3,391.2,587.3,391.8z"/>
			<g>
				<g>
					<path fill="#3A3026" d="M624,354.4c-1.5-1-3-1.7-4.4-2.3c-1.5-0.5-2.9-0.8-4.3-0.8c-1.4,0.1-2.9,0.4-4.3,1
						c-0.7,0.3-1.5,0.7-2.3,1c-0.7,0.4-1.5,0.8-2.4,1.1c0.4-0.8,0.9-1.5,1.5-2.3c0.6-0.6,1.3-1.3,2-1.9c1.5-1.1,3.4-1.8,5.4-1.9
						c2-0.1,4,0.6,5.5,1.7C622.3,351.2,623.5,352.7,624,354.4z"/>
				</g>
			</g>
			<g>
				<g>
					<path fill="#F7AF97" d="M592.2,397.9c0.7,0.5,1.4,1,2.1,1.4c0.7,0.4,1.5,0.8,2.2,1.1c1.5,0.6,3.1,0.9,4.6,0.7
						c0.4,0,0.8-0.1,1.1-0.2c0.2,0,0.4-0.1,0.6-0.1c0.2-0.1,0.4-0.1,0.6-0.2c0.4-0.1,0.8-0.2,1.1-0.4c0.4-0.2,0.7-0.4,1.1-0.5
						c0.7-0.3,1.4-0.9,2.1-1.3c0.7-0.5,1.3-1,2.1-1.5l0.1,0.1l-1.8,1.8c-0.7,0.5-1.3,1.1-2.1,1.5c-1.4,0.9-3.1,1.6-4.8,1.7
						c-1.7,0.2-3.5-0.2-5-1C594.6,400.3,593.2,399.2,592.2,397.9L592.2,397.9z"/>
				</g>
			</g>
			<g>
				<g>
					<path fill="#3A3026" d="M589.5,354.4c-1.5-1-3-1.7-4.4-2.3c-1.5-0.5-2.9-0.8-4.3-0.8c-1.4,0.1-2.9,0.4-4.3,1
						c-0.7,0.3-1.5,0.7-2.3,1c-0.7,0.4-1.5,0.8-2.4,1.1c0.4-0.8,0.9-1.5,1.5-2.3c0.6-0.6,1.3-1.3,2-1.9c1.5-1.1,3.4-1.8,5.4-1.9
						c2-0.1,4,0.6,5.5,1.7C587.8,351.2,589,352.7,589.5,354.4z"/>
				</g>
			</g>
		</g>
	</g>
	<g>
		<path fill="#494949" d="M785,457.6h-89v-23.7c0-7.9,5.6-14.4,13-15.9c1-0.2,2.1-0.3,3.2-0.3h44.9c6.5,0,12.4,3.9,14.9,9.9
			L785,457.6z"/>
		<path fill="#2D2D2D" d="M725.2,457.6H696v-23.7c0-7.9,5.6-14.4,13-15.9c3.4,1,6.3,4.6,7.7,9.5L725.2,457.6z"/>
	</g>
	<path fill="#3B7A96" d="M713.1,457.6c0,0,4-31.2,64.2-31.2c60.1,0,75,31.2,75,31.2H713.1z"/>
	<polygon fill="#292435" points="757.3,361.3 778.1,391.7 784,371.5 774.6,347.4 	"/>
	<path fill="#E29986" d="M852.1,359.5c0,0,10.5-7.6,10.5,7.1c0,14.8-10.5,11.3-10.5,11.3V359.5z"/>
	<path fill="#FFCDC0" d="M759.5,364.2c0,12.8,13.8,12.8,13.8,12.8c0,5.4,3.7,16.8,5.7,21.5c2,4.7-1.7,27.9-1.7,27.9l23.5,31.2
		c0,0,6.4-11.1,5.4-26.9c-1-15.8,14.1-11.1,33.9-13.4c3.9-0.5,6.7-4.6,8.5-10.8c0,0,0-0.1,0-0.1c0.4-1.5,0.8-3.1,1.2-4.9
		c5.5-27.5-0.4-81.2-0.4-82c0,0-11.8-16.8-12.4-17.8c-0.7-1-28.9-3.4-28.9-3.4l-21.4,11l-11.2,5.8l-1.3,43.7
		C773.2,358.1,759.5,351.4,759.5,364.2z"/>
	<path fill="#F2BAAF" d="M759.5,364.2c0,12.8,13.8,12.8,13.8,12.8c0,5.4,3.7,16.8,5.7,21.5c2,4.7-1.7,27.9-1.7,27.9l23.5,31.2
		c0,0,6.4-11.1,5.4-26.9c-1-15.8,14.1-11.1,33.9-13.4c3.9-0.5,6.7-4.6,8.5-10.8c-1.8,3.5-6.4,7.5-17.5,7.5
		c-19.7,0-44.4,2.3-44.4-18.9v-85.7l-11.2,5.8l-1.3,43.7C773.2,358.1,759.5,351.4,759.5,364.2z"/>
	<path fill="#292435" d="M759.5,364.2c0-12.9,14.8-5.4,14.8-5.4l5.4-9.4c32.9,9.4,58.1-37.3,58.1-37.3c13.4,4.7,14.2,44,14.2,42.3
		l0.2,5.1l5.3-18.2c5.8-46.1-23.4-45.7-23.4-45.7c-46-38-92.4,45.4-92.4,45.4L759.5,364.2z M781,345c0,0,14.4-24.5,43.3-32.9
		C824.3,312.1,805.8,346.7,781,345z"/>
	<path fill="#C67C6D" d="M772.1,371.5c0,0,0.2-10.5-6.2-11.3c-6.4-0.8-1.7,8.1,0,8.6S771.7,369.5,772.1,371.5z"/>
	<ellipse fill="#1C1C1C" cx="839.6" cy="364.7" rx="3.8" ry="5.6"/>
	<ellipse fill="#1C1C1C" cx="805.9" cy="364.7" rx="3.8" ry="5.6"/>
	<path fill="#D64D4D" d="M828.7,365.9c0,0,3.4,11.6,6.2,15.5s-9.1,8.9-9.7-1C824.5,370.5,828.7,365.9,828.7,365.9z"/>
	<path fill="#212121" d="M809,388c0,0,2.2,2.5,5.3,5.4h0c3.9,3.6,9.3,7.6,13.5,7.6c2.7,0,5.2-1.7,7.2-3.8c3.7-3.8,6-9.2,6-9.2
		s-1.5,0.4-4.3,0.8c-4.2,0.6-11.4,1.1-21,0.1C813.7,388.7,811.4,388.4,809,388z"/>
	<path fill="#FFFFFF" d="M815.9,388.9v0.7c0,1.1,0.9,2,2,2h17c1.1,0,2-0.9,2-2v-0.9C832.6,389.4,825.4,389.9,815.9,388.9z"/>
	<path fill="#D64D4D" d="M814.4,393.4c3.9,3.6,9.3,7.6,13.5,7.6c2.7,0,5.2-1.7,7.2-3.8C832.7,395,827.2,392.9,814.4,393.4z"/>
	<g>
		<g>
			<path fill="#1C1C1C" d="M849.9,351.9c-1.4-1.1-2.8-1.9-4.2-2.6c-1.4-0.6-3-1-4.4-0.9c-1.5,0.1-3,0.4-4.5,1.1
				c-0.4,0.1-0.7,0.4-1.1,0.5l-1.1,0.6c-0.7,0.4-1.4,0.9-2.2,1.3c0.5-0.7,1-1.4,1.6-2.1c0.7-0.6,1.3-1.2,2-1.7
				c1.5-1,3.3-1.7,5.2-1.7c1.9-0.1,3.8,0.5,5.3,1.5C847.9,348.9,849.2,350.3,849.9,351.9z"/>
		</g>
	</g>
	<g>
		<g>
			<path fill="#1C1C1C" d="M815.9,351.9c-1.4-1.1-2.8-1.9-4.2-2.6c-1.4-0.6-3-1-4.4-0.9c-1.5,0.1-3,0.4-4.5,1.1
				c-0.4,0.1-0.7,0.4-1.1,0.5l-1.1,0.6c-0.7,0.4-1.4,0.9-2.2,1.3c0.5-0.7,1-1.4,1.6-2.1c0.7-0.6,1.3-1.2,2-1.7
				c1.5-1,3.3-1.7,5.2-1.7c1.9-0.1,3.8,0.5,5.3,1.5C813.9,348.9,815.1,350.3,815.9,351.9z"/>
		</g>
	</g>
	<g>
		<g>
			<path fill="#DD8F7A" d="M819.5,399.4c0.7,0.5,1.4,1,2.1,1.4c0.7,0.4,1.4,0.8,2.2,1.1c1.5,0.6,3,0.9,4.5,0.7
				c0.4,0,0.8-0.1,1.1-0.2c0.2,0,0.4-0.1,0.6-0.1c0.2-0.1,0.4-0.1,0.5-0.2c0.4-0.1,0.8-0.2,1.1-0.4c0.3-0.2,0.7-0.3,1.1-0.5
				c0.7-0.3,1.4-0.8,2.1-1.3c0.7-0.5,1.3-1,2.1-1.5l0.1,0.1l-1.8,1.8c-0.7,0.5-1.3,1.1-2,1.5c-1.4,0.9-3.1,1.5-4.8,1.7
				c-1.7,0.2-3.4-0.2-5-1C821.9,401.8,820.5,400.7,819.5,399.4L819.5,399.4z"/>
		</g>
	</g>
	<path fill="#F7AF97" d="M923.8,457.6c0,0-0.1-25.1,24.4-25.1c24.5,0,24.7,25.1,24.7,25.1H923.8z"/>
	<path fill="#1E1E1E" d="M851.3,457.6c7-15.1,22.5-25.6,40.4-25.6c18,0,33.5,10.5,40.4,25.6h13.1c-7.6-22-28.7-37.8-53.6-37.8
		s-46,15.8-53.6,37.8H851.3z"/>
	<path fill="#FFCDC0" d="M803.6,462.7c0,0-0.1-25.1,24.4-25.1c24.5,0,24.7,25.1,24.7,25.1H803.6z"/>
	<g>
		<path fill="#2D2D2D" d="M720.7,651c0-38.8-25.5-70.3-57-70.3h-47.4l-29.9,48.5l29.9,92.1h47.4l1.8,0l0,0
			C696.2,720,720.7,689.1,720.7,651z"/>
		<ellipse fill="#303030" cx="616.4" cy="651" rx="57" ry="70.3"/>
		<ellipse fill="#DDD8A8" cx="616.4" cy="651" rx="36.5" ry="45"/>
	</g>
	<path fill="#2D2D2D" d="M614.8,651H763c0,0,1.4-84.9-74.1-96.6C613.5,542.7,614.8,651,614.8,651z"/>
	<path fill="#2D2D2D" d="M263.7,651h148.2c0,0,1.4-84.9-74.1-96.6C262.3,542.7,263.7,651,263.7,651z"/>
	<path fill="#2D2D2D" d="M1071.1,651c0-38.8-25.5-70.3-57-70.3h-47.4l-29.9,48.5l29.9,92.1h47.4l1.8,0l0,0
		C1046.6,720,1071.1,689.1,1071.1,651z"/>
	<g>
		<path fill="#2D2D2D" d="M442.2,651c0-38.8-25.5-70.3-57-70.3h-47.4l-29.9,48.5l29.9,92.1h47.4l1.8,0l0,0
			C417.6,720,442.2,689.1,442.2,651z"/>
		<ellipse fill="#494949" cx="337.8" cy="651" rx="57" ry="70.3"/>
		<ellipse fill="#F9F5C7" cx="337.8" cy="651" rx="36.5" ry="45"/>
	</g>
	<ellipse fill="#3A3A3A" cx="966.8" cy="651" rx="57" ry="70.3"/>
	<ellipse fill="#DDD8A8" cx="966.8" cy="651" rx="36.5" ry="45"/>
	<g>
		<path fill="#2D2D2D" d="M793.9,651c0-38.8-25.5-70.3-57-70.3h-47.4l-29.9,48.5l29.9,92.1h47.4l1.8,0l0,0
			C769.4,720,793.9,689.1,793.9,651z"/>
		<ellipse fill="#494949" cx="689.5" cy="651" rx="57" ry="70.3"/>
		<ellipse fill="#F9F5C7" cx="689.5" cy="651" rx="36.5" ry="45"/>
	</g>
	<path fill="#ED5E60" d="M1143.7,625.9H784.3l21-95.1c-6.1-42-42.1-73.2-84.6-73.2h355.1c42.5,0,78.5,31.2,84.6,73.2l9.4,64.9
		C1172.2,611.6,1159.8,625.9,1143.7,625.9z"/>
	<path fill="#96333D" d="M253.7,554.4h-16.2c-9.5,0-15.8-7.3-14.2-15.2l0.8-3.8l2.6-12.9c1-5,7-8.8,13.5-8.8h11
		c6.5,0,12.5,3.7,13.5,8.8l2.6,12.9l0.8,3.8C269.5,547.1,263.2,554.4,253.7,554.4z"/>
	<path fill="#3A3A3A" d="M1129.6,599.8H847.4c-9.3,0-16.7-6.5-17.8-15.6l-4.7-39c-1.5-12.1,8.8-23.3,21.1-23.3h278.9
		c9.2,0,16.8,6.4,18.3,15.3l6.6,38.9C1151.9,588.2,1142.1,599.8,1129.6,599.8z"/>
	<path fill="#FFF383" d="M907.3,576.4h-53.4c-4.4,0-8.4-4.3-8.9-9.6l-1.2-13.1c-0.5-4.8,2.5-8.7,6.6-8.7l37.8,0
		c9.9,0,20.2,9.4,23,21.6l0.5,2.2C912.7,573,910.7,576.4,907.3,576.4z"/>
	<path fill="#FFF383" d="M1073.9,576.4l56.1,0c4.6,0,7.2-4.9,5.9-10.6l-3-12.9c-1-4.4-4.8-7.8-8.5-7.8l-34.1,0
		c-9,0-18.1,8.4-20.7,20.5l-0.5,2.3C1068.1,572.5,1070.2,576.4,1073.9,576.4z"/>
	<path fill="#96333D" d="M673.4,457.6h-21.1l-3.5-10L604.6,321c-3-8.5,3.4-17.5,12.4-17.5h2.5l50.4,144.1L673.4,457.6z"/>
	<path fill="#96333D" d="M901.9,303.5h2.5l53.9,154.1h-21.1L889.5,321C886.5,312.4,892.8,303.5,901.9,303.5z"/>
	<path fill="#ED5E60" d="M979.3,457.6l-48.1-137.5c-3.5-10-12.9-16.6-23.4-16.6h-3.4h-0.1H640.5l0,0h-21.1l50.4,144.1l3.5,10h21.1
		l-3.5-10l-46-131.6l2.6,7.5h263.8l0,0l46.9,134.1H979.3z"/>
	<path fill="#F4F2E6" d="M278.2,625.9C278.2,625.9,278.1,625.9,278.2,625.9l-47.4-0.1c-3.5,0-6.6,1.4-8.9,3.7
		c-2.5,2.5-3.9,5.9-3.7,9.8c0.5,6.7,6.3,11.7,13,11.7h35.9c5.4,0,9.8-4.5,9.7-9.9c0,0,0-0.1,0-0.1
		C276.9,635.9,277.3,630.8,278.2,625.9z"/>
	<path fill="#F4F2E6" d="M618.7,625.9H408.3c-5.5,0-10,4.6-9.7,10.2c0.1,1.6,0.1,3.3,0.1,5c0,0,0,0.1,0,0.1c0,5.4,4.3,9.9,9.7,9.9
		h210.1c5.4,0,9.8-4.5,9.7-9.9c0,0,0-0.1,0-0.1c0-1.7,0-3.3,0.1-5C628.8,630.5,624.3,625.9,618.7,625.9z"/>
	<path fill="#F4F2E6" d="M1167.9,625.9h-419c0.8,4.9,1.3,10,1.3,15.2c0,0,0,0.1,0,0.1c0,5.4,4.3,9.9,9.7,9.9h408.3
		c3.5,0,6.6-1.4,8.9-3.7c2.5-2.5,3.9-6,3.7-9.8C1180.4,630.9,1174.6,625.9,1167.9,625.9z"/>
	<path fill="#CC5056" d="M787,625.9h-38c-0.3-1.7-0.6-3.4-1-5.1c-0.2-0.9-0.4-1.8-0.7-2.6c-0.1-0.4-0.2-0.9-0.3-1.3
		c-0.5-1.6-0.9-3.1-1.5-4.6c-0.3-1-0.7-1.9-1.1-2.9c-0.2-0.5-0.4-0.9-0.6-1.4c-0.2-0.5-0.4-0.9-0.6-1.4c-0.2-0.5-0.4-0.9-0.6-1.4
		c-0.2-0.5-0.4-0.9-0.6-1.4c-0.2-0.5-0.4-0.9-0.7-1.3c-0.7-1.3-1.4-2.6-2.1-3.9c-0.2-0.4-0.5-0.8-0.7-1.3c-0.2-0.4-0.5-0.8-0.8-1.2
		c-0.5-0.8-1-1.6-1.6-2.4c-0.3-0.4-0.5-0.8-0.8-1.2c-0.8-1.2-1.7-2.3-2.6-3.4c-0.3-0.4-0.6-0.7-0.9-1.1c-0.9-1.1-1.9-2.1-2.8-3.1
		c-0.3-0.3-0.6-0.7-1-1c-0.5-0.5-1.1-1.1-1.6-1.6c-0.5-0.4-0.9-0.9-1.4-1.3c-0.3-0.3-0.7-0.6-1-0.9c-0.4-0.4-0.8-0.7-1.3-1
		c-0.3-0.2-0.6-0.5-0.9-0.7c-1.6-1.3-3.3-2.4-5-3.5c-0.3-0.2-0.7-0.4-1-0.6c-1.4-0.8-2.8-1.6-4.3-2.3c-0.4-0.2-0.8-0.4-1.2-0.6
		c-0.8-0.4-1.6-0.7-2.5-1c-0.4-0.2-0.8-0.3-1.3-0.5c-0.7-0.3-1.4-0.5-2.2-0.7c-0.4-0.1-0.8-0.2-1.3-0.4c-1.5-0.4-3-0.8-4.5-1
		c-0.5-0.1-1-0.2-1.5-0.3c0,0-0.1,0-0.1,0c-0.5-0.1-1-0.1-1.4-0.2c-0.8-0.1-1.5-0.2-2.3-0.2c-0.4,0-0.8-0.1-1.2-0.1
		c-0.4,0-0.8,0-1.2-0.1c-0.5,0-1,0-1.6,0c-0.5,0-1.1,0-1.6,0c-0.4,0-0.8,0-1.2,0.1c-0.4,0-0.9,0.1-1.3,0.1c-0.8,0.1-1.5,0.1-2.3,0.2
		c-0.5,0.1-1,0.1-1.4,0.2c-2.1,0.3-4.1,0.7-6.1,1.3c-0.4,0.1-0.8,0.2-1.3,0.4c-0.4,0.1-0.8,0.2-1.1,0.4c-0.3,0.1-0.7,0.2-1,0.4
		c-0.4,0.1-0.8,0.3-1.3,0.5c-0.4,0.2-0.8,0.3-1.2,0.5c-0.8,0.3-1.6,0.7-2.5,1.1c-6.9,3.2-13.1,7.9-18.5,13.8c-0.3,0.3-0.6,0.7-0.9,1
		c-3.4,3.9-6.5,8.2-9.1,12.9c-0.5,0.9-0.9,1.7-1.4,2.6c-0.2,0.5-0.5,0.9-0.7,1.3c-0.2,0.4-0.4,0.9-0.6,1.4c-0.2,0.4-0.4,0.8-0.5,1.2
		c-0.4,1-0.8,1.9-1.2,3c-0.4,0.9-0.7,1.9-1.1,2.9c-0.2,0.7-0.5,1.4-0.7,2.1c-0.2,0.4-0.3,0.9-0.4,1.3c-0.1,0.4-0.3,0.8-0.4,1.3
		c-0.1,0.4-0.2,0.9-0.3,1.3c-0.1,0.4-0.2,0.9-0.4,1.3c-0.5,2.1-1,4.2-1.3,6.3H397.4c-0.3-1.7-0.6-3.4-1-5.1
		c-0.2-0.9-0.4-1.8-0.7-2.6c-0.1-0.4-0.2-0.9-0.3-1.3c-0.5-1.6-0.9-3.1-1.5-4.6c-0.3-1-0.7-1.9-1.1-2.9c-0.4-1-0.8-2-1.2-3
		c-0.2-0.4-0.4-0.8-0.5-1.2c-0.2-0.5-0.4-0.9-0.6-1.4c-0.2-0.5-0.4-0.9-0.7-1.3c-0.4-0.9-0.9-1.7-1.4-2.6c-0.6-1.1-1.2-2.1-1.8-3.1
		c-0.3-0.5-0.6-0.9-0.9-1.4c-0.3-0.5-0.6-0.9-0.9-1.4c-1.7-2.5-3.5-4.8-5.5-7c-0.3-0.3-0.6-0.7-0.9-1c-5.4-5.9-11.6-10.5-18.5-13.8
		c-0.4-0.2-0.8-0.4-1.2-0.6c-0.8-0.4-1.6-0.7-2.5-1c-0.4-0.2-0.8-0.3-1.3-0.5c-0.3-0.1-0.7-0.2-1-0.4c-0.3-0.1-0.7-0.2-1-0.3
		c-0.5-0.1-0.9-0.3-1.4-0.4c-0.4-0.1-0.8-0.2-1.3-0.3c-1.1-0.3-2.1-0.5-3.2-0.7c-0.5-0.1-1-0.2-1.5-0.3c-0.5-0.1-1-0.1-1.5-0.2
		c-0.8-0.1-1.5-0.2-2.3-0.2c-0.4,0-0.8-0.1-1.2-0.1c-0.4,0-0.8,0-1.2-0.1c-0.5,0-1,0-1.6,0c-0.5,0-1,0-1.6,0c-0.4,0-0.8,0-1.2,0.1
		c-0.4,0-0.8,0-1.2,0.1c-0.8,0.1-1.5,0.1-2.3,0.2c-0.5,0.1-1,0.1-1.5,0.2c-0.5,0.1-1,0.2-1.5,0.3c-1.1,0.2-2.2,0.4-3.2,0.7
		c-0.4,0.1-0.8,0.2-1.3,0.3c-0.5,0.1-0.9,0.3-1.4,0.4c-0.3,0.1-0.7,0.2-1,0.3c-0.3,0.1-0.7,0.2-1,0.4c-0.4,0.1-0.8,0.3-1.3,0.5
		c-0.8,0.3-1.7,0.7-2.5,1c-0.4,0.2-0.8,0.4-1.2,0.6c-6.9,3.2-13.1,7.9-18.5,13.8c-0.3,0.3-0.6,0.7-0.9,1c-1.9,2.2-3.8,4.5-5.5,7
		c-0.3,0.5-0.6,0.9-0.9,1.4c-0.3,0.5-0.6,0.9-0.9,1.4c-0.6,1-1.3,2.1-1.8,3.1c-0.5,0.9-0.9,1.7-1.4,2.6c-0.2,0.5-0.5,0.9-0.7,1.3
		c-0.2,0.4-0.4,0.9-0.6,1.4c-0.2,0.4-0.4,0.8-0.5,1.2c-0.4,1-0.8,1.9-1.2,3c-0.4,0.9-0.7,1.9-1.1,2.9c-0.5,1.5-1,3-1.5,4.6
		c-0.1,0.4-0.2,0.9-0.3,1.3c-0.2,0.9-0.5,1.7-0.7,2.6c-0.4,1.7-0.7,3.4-1,5.1h-32.5c-11.7,0-20.7-10.4-19.1-22l10.6-73.1
		c6.1-42,42.1-73.2,84.6-73.2h398.9c42.5,0,78.5,31.2,84.6,73.2l9.2,63.3C816.9,610.8,803.9,625.9,787,625.9z"/>
	<path fill="#A53F48" d="M766.2,625.9c0,0.5,0,1.1,0,1.6h11c0-0.5,0-1.1,0-1.6c0-44.8-36.3-81.2-81.2-81.2c-1.9,0-3.7,0.1-5.5,0.2
		C732.8,547.7,766.2,582.9,766.2,625.9z"/>
	<path fill="#A53F48" d="M415.1,625.9c0,0.5,0,1.1,0,1.6h11c0-0.5,0-1.1,0-1.6c0-44.8-36.3-81.2-81.2-81.2c-1.9,0-3.7,0.1-5.5,0.2
		C381.7,547.7,415.1,582.9,415.1,625.9z"/>
	<path fill="#BFBDB6" d="M824,651h-64c-5.4,0-9.7-4.5-9.7-9.9V641c0-5.2-0.4-10.3-1.3-15.2c-0.3-1.7-0.6-3.4-1-5.1
		c-0.2-0.9-0.4-1.8-0.7-2.6c-0.1-0.4-0.2-0.9-0.3-1.3c-0.5-1.6-0.9-3.1-1.5-4.6c-0.3-1-0.7-1.9-1.1-2.9c-0.2-0.5-0.4-0.9-0.6-1.4
		c-0.2-0.5-0.4-0.9-0.6-1.4c-0.2-0.5-0.4-0.9-0.6-1.4c-0.2-0.5-0.4-0.9-0.6-1.4c-0.2-0.5-0.4-0.9-0.7-1.3c-0.7-1.3-1.4-2.6-2.1-3.9
		c-0.2-0.4-0.5-0.8-0.7-1.3c-0.2-0.4-0.5-0.8-0.8-1.2c-0.5-0.8-1-1.6-1.6-2.4c-0.3-0.4-0.5-0.8-0.8-1.2c-0.8-1.2-1.7-2.3-2.6-3.4
		c-0.3-0.4-0.6-0.7-0.9-1.1c-0.9-1.1-1.8-2.1-2.8-3.1c-0.3-0.3-0.6-0.7-1-1c-0.5-0.5-1.1-1.1-1.6-1.6c-0.5-0.4-0.9-0.9-1.4-1.3
		c-0.3-0.3-0.7-0.6-1-0.9c-0.4-0.4-0.8-0.7-1.3-1c-0.3-0.2-0.6-0.5-0.9-0.7c-1.6-1.3-3.3-2.4-5-3.5c-0.3-0.2-0.7-0.4-1-0.6
		c-1.4-0.8-2.8-1.6-4.3-2.3c-0.4-0.2-0.8-0.4-1.2-0.6c-0.8-0.4-1.6-0.7-2.5-1c-0.4-0.2-0.8-0.3-1.3-0.5c-0.7-0.3-1.4-0.5-2.2-0.7
		c-0.4-0.1-0.8-0.2-1.3-0.4c-1.5-0.4-3-0.8-4.5-1c-0.5-0.1-1-0.2-1.5-0.3c0,0-0.1,0-0.1,0c-0.5-0.1-1-0.1-1.4-0.2
		c-0.8-0.1-1.5-0.2-2.3-0.2c-0.4,0-0.8-0.1-1.2-0.1c-0.4,0-0.8,0-1.2-0.1c-0.5,0-1,0-1.6,0c-0.5,0-1,0-1.6,0c-0.4,0-0.8,0-1.2,0.1
		c-0.4,0-0.8,0.1-1.3,0.1c-0.8,0.1-1.5,0.1-2.3,0.2c-0.5,0.1-1,0.1-1.4,0.2c-2.1,0.3-4.1,0.7-6.1,1.3c-0.4,0.1-0.8,0.2-1.3,0.4
		c-0.4,0.1-0.8,0.2-1.1,0.4c-0.3,0.1-0.7,0.2-1,0.4c-0.4,0.1-0.8,0.3-1.3,0.5c-0.4,0.2-0.8,0.3-1.2,0.5c-0.8,0.3-1.6,0.7-2.5,1.1
		c-6.9,3.2-13.1,7.9-18.5,13.8c-0.3,0.3-0.6,0.7-0.9,1c-3.4,3.9-6.5,8.2-9.1,12.9c-0.5,0.9-0.9,1.7-1.4,2.6
		c-0.2,0.5-0.5,0.9-0.7,1.3c-0.2,0.5-0.4,0.9-0.6,1.4c-0.2,0.4-0.4,0.8-0.5,1.2c-0.4,1-0.8,1.9-1.2,3c-0.4,0.9-0.7,1.9-1.1,2.9
		c-0.2,0.7-0.5,1.4-0.7,2.1c-0.2,0.4-0.3,0.9-0.4,1.3c-0.1,0.4-0.3,0.8-0.4,1.3c-0.1,0.4-0.2,0.9-0.3,1.3c-0.1,0.4-0.2,0.9-0.4,1.3
		c-0.5,2.1-1,4.2-1.3,6.3c-0.9,4.9-1.3,10-1.3,15.2v0.2c0,5.4-4.4,9.7-9.7,9.7H408.5c-5.4,0-9.7-4.4-9.7-9.7V641
		c0-5.2-0.4-10.3-1.3-15.2c-0.3-1.7-0.6-3.4-1-5.1c-0.2-0.9-0.4-1.8-0.7-2.6c-0.1-0.4-0.2-0.9-0.3-1.3c-0.5-1.6-0.9-3.1-1.5-4.6
		c-0.3-1-0.7-1.9-1.1-2.9c-0.4-1-0.8-2-1.2-3c-0.2-0.4-0.3-0.8-0.5-1.2c-0.2-0.5-0.4-0.9-0.6-1.4c-0.2-0.5-0.4-0.9-0.7-1.3
		c-0.4-0.9-0.9-1.7-1.4-2.6c-0.6-1.1-1.2-2.1-1.8-3.1c-0.3-0.5-0.6-0.9-0.9-1.4c-0.3-0.5-0.6-0.9-0.9-1.4c-1.7-2.5-3.5-4.8-5.5-7
		c-0.3-0.3-0.6-0.7-0.9-1c-5.4-5.9-11.6-10.5-18.5-13.8c-0.4-0.2-0.8-0.4-1.2-0.6c-0.8-0.4-1.6-0.7-2.5-1c-0.4-0.2-0.8-0.3-1.3-0.5
		c-0.3-0.1-0.7-0.2-1-0.4c-0.3-0.1-0.7-0.2-1-0.3c-0.5-0.1-0.9-0.3-1.4-0.4c-0.4-0.1-0.8-0.2-1.3-0.3c-1.1-0.3-2.1-0.5-3.2-0.7
		c-0.5-0.1-1-0.2-1.5-0.3c-0.5-0.1-1-0.1-1.5-0.2c-0.8-0.1-1.5-0.2-2.3-0.2c-0.4,0-0.8-0.1-1.2-0.1c-0.4,0-0.8,0-1.2-0.1
		c-0.5,0-1,0-1.6,0c-0.5,0-1,0-1.6,0c-0.4,0-0.8,0-1.2,0.1c-0.4,0-0.8,0-1.2,0.1c-0.8,0.1-1.5,0.1-2.3,0.2c-0.5,0.1-1,0.1-1.5,0.2
		c-0.5,0.1-1,0.2-1.5,0.3c-1.1,0.2-2.2,0.4-3.2,0.7c-0.4,0.1-0.9,0.2-1.3,0.3c-0.5,0.1-0.9,0.3-1.4,0.4c-0.3,0.1-0.7,0.2-1,0.3
		c-0.3,0.1-0.7,0.2-1,0.4c-0.4,0.1-0.8,0.3-1.3,0.5c-0.8,0.3-1.7,0.7-2.5,1c-0.4,0.2-0.8,0.4-1.2,0.6c-6.9,3.2-13.1,7.9-18.5,13.8
		c-0.3,0.3-0.6,0.7-0.9,1c-1.9,2.2-3.8,4.5-5.5,7c-0.3,0.5-0.6,0.9-0.9,1.4c-0.3,0.5-0.6,0.9-0.9,1.4c-0.6,1-1.3,2.1-1.8,3.1
		c-0.5,0.9-0.9,1.7-1.4,2.6c-0.2,0.5-0.5,0.9-0.7,1.3c-0.2,0.5-0.4,0.9-0.6,1.4c-0.2,0.4-0.4,0.8-0.5,1.2c-0.4,1-0.8,1.9-1.2,3
		c-0.4,0.9-0.7,1.9-1.1,2.9c-0.5,1.5-1,3-1.5,4.6c-0.1,0.4-0.2,0.9-0.3,1.3c-0.2,0.9-0.5,1.7-0.7,2.6c-0.4,1.7-0.7,3.4-1,5.1
		c-0.9,4.9-1.3,10-1.3,15.2v0.1c0,5.4-4.3,9.9-9.7,9.9h-36c-6.7,0-12.5-5-12.9-11.7c-0.3-3.8,1.2-7.3,3.6-9.8
		c2.3-2.3,5.4-3.7,8.9-3.7h30.3c2-37,24.7-68,55.6-77.9c6.2-2,12.7-3.1,19.4-3.3c41.7-1.2,76.9,34.8,80.1,81.2H613
		c2.4-44.4,34.5-80.1,74.9-81.2c41.7-1.2,76.9,34.8,80.1,81.2h55.5c6.7,0,12.5,5.1,13,11.7C837,644.9,831.2,651,824,651z"/>
	<path fill="#F4F2E6" d="M1156.6,509.8h-914c-3.1,0-5.7-2.5-5.7-5.7v-7.2h927.8v4.7C1164.7,506.2,1161.1,509.8,1156.6,509.8z"/>
	<g>
		<path fill="#AD444E" d="M477.1,457.6c-4.8,1.1-9.3,3.2-13,6.1c-3.8,2.9-6.7,6.7-8.4,11.1c-0.8,2.2-1.3,4.4-1.6,6.7
			c-0.2,1.1-0.2,2.3-0.2,3.5c0,1.2,0,2.3,0.1,3.6l0.6,14.6l0,58.5v29.2v7.3c0,2.1,0.5,4,1.5,5.8c1.9,3.5,5.8,5.9,9.8,5.9l58.5,0
			h29.2h14.6h7.3h3.7l1.8,0l1.6-0.1c4.3-0.3,8.5-2.2,11.7-5.1c1.6-1.5,3-3.2,4-5.1c0.5-0.9,1-1.9,1.3-3c0.2-0.5,0.3-1,0.5-1.6
			l0.5-1.8c2.8-9.5,6.3-18.7,10.5-27.7c2.1-4.5,4.3-8.9,6.8-13.2c2.5-4.3,5.1-8.5,7.9-12.6c1.4-2.1,2.9-4,4.4-6
			c1.4-1.9,2.7-3.8,3.9-5.8c1.2-2,2.2-4.1,3.1-6.3c0.9-2.2,1.6-4.4,2.3-6.6c1.5-4.4,2.4-9.1,2.7-13.8c0.3-4.8,0.4-9.7,0.6-14.6
			l0.6-14.6l0.7-14.6l0.7,14.6l0.6,14.6c0.2,4.9,0.4,9.7,0.6,14.7c0.1,5-0.5,10.1-1.7,15.1c-0.6,2.5-1.5,4.9-2.5,7.2
			c-1,2.3-2.1,4.6-3.4,6.8c-1.3,2.2-2.7,4.3-4.2,6.3c-1.4,2-2.9,3.8-4.2,5.8c-2.8,3.9-5.3,8-7.7,12.2c-2.4,4.2-4.6,8.4-6.6,12.8
			c-4.1,8.7-7.5,17.7-10.2,27l-0.5,1.7c-0.2,0.6-0.4,1.3-0.6,1.9c-0.5,1.3-1,2.5-1.7,3.7c-1.3,2.4-3,4.5-5,6.3
			c-4,3.7-9.2,6-14.6,6.4l-2,0.1l-1.8,0h-3.7h-7.3h-14.6h-29.2l-58.5,0c-5.8-0.1-11.3-3.4-14.1-8.5c-1.4-2.5-2.1-5.4-2.1-8.2v-7.3
			v-29.2l0-58.5l0.6-14.6c0.1-4.9,0.9-10.3,3.2-14.8c2.2-4.6,5.8-8.5,10.1-11.2C467.5,459.8,472.2,458.2,477.1,457.6z"/>
	</g>
	<polygon opacity="0.67" fill="#C66A6E" points="694.4,457.6 652.4,457.6 648.9,447.6 690.9,447.6 	"/>
	<polygon opacity="0.67" fill="#C66A6E" points="979.3,457.6 937.2,457.6 933.7,447.6 975.8,447.6 	"/>
	<g>
		<path fill="#BFBDB6" d="M659.3,453.8v17.5c0,5.5-5.7,10.2-13.6,11.2l-16.4,1.9l-3.8,0.4c-10,1.2-19.1-4.1-19.1-11.1v-22.2
			c0-7,9.1-12.3,19.1-11.2l3.8,0.4l16.4,1.9C653.5,443.6,659.3,448.3,659.3,453.8z"/>
		<path fill="#F4F2E6" d="M659.3,453.8v17.5c0,5.5-5.7,10.2-13.6,11.2l-16.4,1.9c-6.4-1.5-11-5.7-11-10.7v-22.2
			c0-5,4.7-9.2,11.1-10.7l16.4,1.9C653.5,443.6,659.3,448.3,659.3,453.8z"/>
	</g>
	<g>
		<defs>
			<path id="SVGID_4_" d="M1049.2,576.9H932.6c-3.8,0-6.9-2.7-7.4-6.5l-1.9-16.1c-0.6-5,3.6-9.6,8.7-9.6h115.2
				c3.8,0,6.9,2.6,7.6,6.3l2.7,16.1C1058.4,572.1,1054.4,576.9,1049.2,576.9z"/>
		</defs>
		<clipPath id="SVGID_5_">
			<use xlink:href="#SVGID_4_"  overflow="visible"/>
		</clipPath>
		<g clip-path="url(#SVGID_5_)">
			<rect x="919.3" y="545.1" fill="#232323" width="142.3" height="4.6"/>
			<rect x="919.3" y="551.8" fill="#232323" width="142.3" height="4.6"/>
			<rect x="919.3" y="558.4" fill="#232323" width="142.3" height="4.6"/>
			<rect x="919.3" y="565.1" fill="#232323" width="142.3" height="4.6"/>
			<rect x="919.3" y="571.8" fill="#232323" width="142.3" height="4.6"/>
		</g>
	</g>
	<g>
		<path fill="#FFFFFF" d="M216.5,517.7c0.3-0.2,0.3-0.7,0.1-0.9l-17.2-19.2c-0.2-0.3-0.7-0.3-0.9-0.1c-0.1,0.1-0.1,0.1-0.1,0.2
			c-0.1,0.2-0.1,0.5,0.1,0.7l17.2,19.2C215.8,518,216.3,518,216.5,517.7z"/>
		<path fill="#FFFFFF" d="M216.4,523.8c0.3-0.5,0.1-1.1-0.4-1.3L188,508c-0.5-0.3-1.1-0.1-1.3,0.4c-0.3,0.5-0.1,1.1,0.4,1.3l28,14.5
			C215.6,524.5,216.2,524.3,216.4,523.8z"/>
		<path fill="#FFFFFF" d="M210.8,527.9c0.4,0,0.7-0.2,0.7-0.6c0-0.4-0.2-0.7-0.6-0.7l-25.6-3c-0.3,0-0.5,0.1-0.7,0.4
			c0,0.1-0.1,0.1-0.1,0.2c0,0.4,0.2,0.7,0.6,0.7L210.8,527.9z"/>
		<path fill="#FFFFFF" d="M236.2,508.4l3-25.6c0-0.4-0.2-0.7-0.6-0.7c-0.3,0-0.5,0.1-0.7,0.4c0,0.1-0.1,0.1-0.1,0.2l-3,25.6
			c0,0.4,0.2,0.7,0.6,0.7C235.8,509.1,236.1,508.8,236.2,508.4z"/>
		<path fill="#FFFFFF" d="M221.8,574.2c0,0.1-0.1,0.1-0.1,0.2l-0.5,4.5c0,0.4,0.2,0.7,0.6,0.7c0.4,0,0.7-0.2,0.7-0.6l0.5-4.5
			c0-0.4-0.2-0.7-0.6-0.7C222.2,573.9,222,574,221.8,574.2z"/>
		<path fill="#FFFFFF" d="M207.3,577.2l5.5-10.6c0.3-0.5,0.1-1.1-0.4-1.3c-0.5-0.3-1.1-0.1-1.3,0.4l-5.5,10.6
			c-0.3,0.5-0.1,1.1,0.4,1.3C206.4,577.8,207,577.6,207.3,577.2z"/>
		<path fill="#FFFFFF" d="M196.1,565.9l19.2-17.2c0.3-0.2,0.3-0.7,0.1-0.9c-0.2-0.3-0.7-0.3-0.9-0.1L195.2,565
			c-0.1,0.1-0.1,0.1-0.1,0.2c-0.1,0.2-0.1,0.5,0.1,0.7C195.4,566.2,195.8,566.2,196.1,565.9z"/>
		<path fill="#FFFFFF" d="M194.4,543c-0.2-0.5-0.7-0.8-1.2-0.6l-11.4,3.6c-0.5,0.2-0.8,0.7-0.6,1.2c0.2,0.5,0.7,0.8,1.2,0.6
			l11.4-3.6C194.3,544,194.6,543.5,194.4,543z"/>
		<path fill="#FFFFFF" d="M231.7,489.9c0.1,0,0.2,0,0.2,0c0.3-0.1,0.4-0.3,0.5-0.6l0.3-4.5c0-0.4-0.3-0.7-0.6-0.7
			c-0.4,0-0.7,0.3-0.7,0.6l-0.3,4.5C231.1,489.5,231.3,489.8,231.7,489.9z"/>
		<path fill="#FFFFFF" d="M219.6,494.6c0.5-0.2,0.8-0.7,0.6-1.2l-3-9.3c-0.2-0.5-0.7-0.8-1.2-0.6c-0.5,0.2-0.8,0.7-0.6,1.2l3,9.3
			C218.5,494.5,219.1,494.8,219.6,494.6z"/>
		<path fill="#FFFFFF" d="M205.4,496.6c0.2,0.2,0.5,0.3,0.7,0.2c0.1,0,0.1-0.1,0.2-0.1c0.3-0.2,0.3-0.6,0.1-0.9l-2.1-2.6
			c-0.2-0.3-0.6-0.3-0.9-0.1c-0.3,0.2-0.3,0.6-0.1,0.9L205.4,496.6z"/>
	</g>
	<path opacity="0.3" fill="#7A7A7A" d="M370.2,457.6L316.7,548l-46.1,77.9L255.7,651h-24.5c-6.7,0-12.5-5-12.9-11.7
		c-0.3-3.8,1.2-7.3,3.6-9.8c2.3-2.3,5.4-3.7,8.9-3.7h14.9c-11.7,0-20.7-10.4-19.1-22l10.6-73.1c6.1-42,42.1-73.2,84.6-73.2H370.2z"
		/>
	<g>
		<path fill="#2E9E63" d="M1189,680.8c-0.9,28.5,17.7,36.5,23.5,38.3c0.9,0.3,1.9-0.3,2.1-1.3c1.1-6,2.6-26.2-23.2-38.4
			C1190.3,678.9,1189,679.6,1189,680.8z"/>
		<path fill="#2E9E63" d="M1241,680.8c0.9,28.5-17.7,36.5-23.5,38.3c-0.9,0.3-1.9-0.3-2.1-1.3c-1.1-6-2.6-26.2,23.2-38.4
			C1239.7,678.9,1241,679.6,1241,680.8z"/>
		<path fill="#39BC7A" d="M1213.6,673.7c-15.6,23.9-3.9,40.3,0.1,44.9c0.6,0.7,1.8,0.7,2.4,0c4-4.5,15.8-21,0.1-44.9
			C1215.7,672.7,1214.3,672.7,1213.6,673.7z"/>
		<path fill="#2AA062" d="M1214.8,693.3c-1.9,13.6-0.5,22.9,0,25.5c0.1,0.4,0.2,0.4,0.3,0c0.5-2.6,1.9-11.9,0-25.5
			C1215.1,692.8,1214.9,692.8,1214.8,693.3z"/>
	</g>
	<g>
		<path fill="#2E9E63" d="M800.3,680.8c-0.9,28.5,17.7,36.5,23.5,38.3c0.9,0.3,1.9-0.3,2.1-1.3c1.1-6,2.6-26.2-23.2-38.4
			C801.6,678.9,800.4,679.6,800.3,680.8z"/>
		<path fill="#2E9E63" d="M852.4,680.8c0.9,28.5-17.7,36.5-23.5,38.3c-0.9,0.3-1.9-0.3-2.1-1.3c-1.1-6-2.6-26.2,23.2-38.4
			C851.1,678.9,852.3,679.6,852.4,680.8z"/>
		<path fill="#39BC7A" d="M825,673.7c-15.6,23.9-3.9,40.3,0.1,44.9c0.6,0.7,1.8,0.7,2.4,0c4-4.5,15.8-21,0.1-44.9
			C827.1,672.7,825.6,672.7,825,673.7z"/>
		<path fill="#2AA062" d="M826.2,693.3c-1.9,13.6-0.5,22.9,0,25.5c0.1,0.4,0.2,0.4,0.3,0c0.5-2.6,1.9-11.9,0-25.5
			C826.4,692.8,826.3,692.8,826.2,693.3z"/>
	</g>
	<g>
		<path fill="#2E9E63" d="M160.6,680.8c-0.9,28.5,17.7,36.5,23.5,38.3c0.9,0.3,1.9-0.3,2.1-1.3c1.1-6,2.6-26.2-23.2-38.4
			C161.9,678.9,160.6,679.6,160.6,680.8z"/>
		<path fill="#2E9E63" d="M212.6,680.8c0.9,28.5-17.7,36.5-23.5,38.3c-0.9,0.3-1.9-0.3-2.1-1.3c-1.1-6-2.6-26.2,23.2-38.4
			C211.3,678.9,212.6,679.6,212.6,680.8z"/>
		<path fill="#39BC7A" d="M185.2,673.7c-15.6,23.9-3.9,40.3,0.1,44.9c0.6,0.7,1.8,0.7,2.4,0c4-4.5,15.8-21,0.1-44.9
			C187.3,672.7,185.9,672.7,185.2,673.7z"/>
		<path fill="#2AA062" d="M186.4,693.3c-1.9,13.6-0.5,22.9,0,25.5c0.1,0.4,0.2,0.4,0.3,0c0.5-2.6,1.9-11.9,0-25.5
			C186.7,692.8,186.5,692.8,186.4,693.3z"/>
	</g>
	<g>
		<path fill="#2E9E63" d="M237.7,767.4c-0.9,28.5,17.7,36.5,23.5,38.3c0.9,0.3,1.9-0.3,2.1-1.3c1.1-6,2.6-26.2-23.2-38.4
			C239,765.5,237.7,766.2,237.7,767.4z"/>
		<path fill="#2E9E63" d="M289.7,767.4c0.9,28.5-17.7,36.5-23.5,38.3c-0.9,0.3-1.9-0.3-2.1-1.3c-1.1-6-2.6-26.2,23.2-38.4
			C288.4,765.5,289.7,766.2,289.7,767.4z"/>
		<path fill="#39BC7A" d="M262.3,760.3c-15.6,23.9-3.9,40.3,0.1,44.9c0.6,0.7,1.8,0.7,2.4,0c4-4.5,15.8-21,0.1-44.9
			C264.4,759.3,263,759.3,262.3,760.3z"/>
		<path fill="#2AA062" d="M263.5,780c-1.9,13.6-0.5,22.9,0,25.5c0.1,0.4,0.2,0.4,0.3,0c0.5-2.6,1.9-11.9,0-25.5
			C263.8,779.4,263.6,779.4,263.5,780z"/>
	</g>
	<g>
		<path fill="#2E9E63" d="M746.5,767.4c-0.9,28.5,17.7,36.5,23.5,38.3c0.9,0.3,1.9-0.3,2.1-1.3c1.1-6,2.6-26.2-23.2-38.4
			C747.8,765.5,746.6,766.2,746.5,767.4z"/>
		<path fill="#2E9E63" d="M798.5,767.4c0.9,28.5-17.7,36.5-23.5,38.3c-0.9,0.3-1.9-0.3-2.1-1.3c-1.1-6-2.6-26.2,23.2-38.4
			C797.3,765.5,798.5,766.2,798.5,767.4z"/>
		<path fill="#39BC7A" d="M771.2,760.3c-15.6,23.9-3.9,40.3,0.1,44.9c0.6,0.7,1.8,0.7,2.4,0c4-4.5,15.8-21,0.1-44.9
			C773.3,759.3,771.8,759.3,771.2,760.3z"/>
		<path fill="#2AA062" d="M772.4,780c-1.9,13.6-0.5,22.9,0,25.5c0.1,0.4,0.2,0.4,0.3,0c0.5-2.6,1.9-11.9,0-25.5
			C772.6,779.4,772.4,779.4,772.4,780z"/>
	</g>
</g>
<g>
	<path fill="#2E9E63" d="M816.8,906.4H569.7c-10.9,0-19.8-8.8-19.8-19.8v-8.5c0-10.9,8.8-19.8,19.8-19.8h247.1
		c10.9,0,19.8,8.8,19.8,19.8v8.5C836.6,897.5,827.7,906.4,816.8,906.4z"/>
	<text transform="matrix(1 0 0 1 581.3352 893.6503)" fill="#FFFFFF" font-family="'Roboto-Bold'" font-size="38.5589px">- CARPOOL -</text>
</g>
</svg>
